<svg xmlns="http://www.w3.org/2000/svg" xmlns:xlink="http://www.w3.org/1999/xlink" preserveAspectRatio="xMidYMid" width="80" height="80" viewBox="0 0 80 80">
  <defs>
    <style>
      .cls-1 {
        fill: #8a0202;
        fill-rule: evenodd;
      }
    </style>
  </defs>
  <path d="M28.765,6.994 C25.343,7.483 22.853,7.489 18.576,6.231 C14.449,5.017 14.000,8.821 14.000,12.389 C14.000,15.957 14.449,19.762 18.576,18.548 C22.853,17.289 25.343,17.295 28.765,17.784 C32.437,18.308 35.239,18.615 37.895,18.703 L38.031,41.856 C38.031,42.553 38.064,42.518 38.218,42.734 C38.372,42.950 38.657,43.227 39.274,43.803 C39.892,44.380 39.393,45.690 38.669,46.087 C37.945,46.483 37.375,47.337 37.743,47.926 C38.111,48.514 38.622,48.622 39.251,49.103 C39.880,49.584 39.963,50.257 39.796,50.906 C39.630,51.555 38.740,51.939 38.111,52.396 C37.482,52.853 37.399,53.754 37.719,54.078 C38.040,54.403 38.538,54.523 39.144,55.016 C39.749,55.508 39.963,56.362 39.607,57.011 C39.251,57.660 38.230,58.321 37.826,58.681 C37.423,59.042 37.304,59.643 37.696,60.015 C38.087,60.388 38.669,60.568 39.298,61.145 C39.927,61.721 39.998,62.359 39.714,62.923 C39.429,63.488 38.408,64.125 38.052,64.401 C37.696,64.678 37.339,65.038 37.624,65.579 C37.909,66.120 38.301,66.036 38.954,66.468 C39.607,66.901 39.880,67.490 39.773,68.595 C39.666,69.701 39.162,69.723 38.680,70.193 C38.198,70.663 38.207,71.214 38.391,71.604 C38.575,71.995 38.996,72.323 39.417,72.696 C39.837,73.068 40.109,72.997 40.109,72.997 C39.500,70.951 39.796,70.218 40.509,69.713 C41.221,69.208 41.660,69.052 41.897,68.752 C42.135,68.451 42.313,68.043 42.099,67.706 C41.886,67.370 41.387,67.057 40.841,66.336 C40.295,65.615 40.081,64.750 40.675,64.149 C41.268,63.548 42.004,63.272 42.420,62.875 C42.835,62.479 42.645,62.070 42.123,61.674 C41.601,61.277 41.411,61.157 40.841,60.412 C40.271,59.667 40.188,58.909 40.604,58.369 C41.019,57.828 41.767,57.419 42.325,57.095 C42.883,56.770 42.681,56.242 42.420,55.977 C42.159,55.713 41.494,55.196 41.019,54.740 C40.545,54.283 40.355,53.646 40.556,52.780 C40.758,51.915 41.541,51.567 42.099,51.302 C42.657,51.038 42.871,50.617 42.610,50.053 C42.349,49.488 41.506,49.283 40.782,48.238 C40.058,47.192 40.972,46.027 41.446,45.738 C41.921,45.450 42.325,45.174 42.313,44.573 C42.301,43.972 41.850,43.599 41.126,42.926 C40.402,42.253 40.969,42.001 40.969,40.895 L41.105,18.703 C43.761,18.615 46.563,18.308 50.235,17.784 C53.657,17.295 56.147,17.289 60.424,18.548 C64.551,19.762 65.000,15.957 65.000,12.389 C65.000,8.821 64.551,5.017 60.424,6.231 C56.147,7.489 53.657,7.483 50.235,6.994 C41.400,5.733 37.600,5.733 28.765,6.994 Z" class="cls-1"/>
</svg>
