<svg xmlns="http://www.w3.org/2000/svg" xmlns:xlink="http://www.w3.org/1999/xlink" preserveAspectRatio="xMidYMid" width="80" height="80" viewBox="0 0 80 80">
  <defs>
    <style>
      .cls-1 {
        fill: #fff;
        fill-rule: evenodd;
      }
    </style>
  </defs>
  <path d="M43.906,54.200 L36.274,54.235 C35.513,49.134 35.036,42.532 35.002,35.320 C34.958,26.048 35.653,17.779 36.775,12.406 L43.007,12.377 C44.179,17.740 44.954,26.002 44.998,35.274 C45.032,42.486 44.619,49.092 43.906,54.200 ZM39.860,6.000 C40.883,5.995 41.842,7.790 42.648,10.874 L37.119,10.900 C37.896,7.808 38.838,6.005 39.860,6.000 ZM37.271,57.041 L36.592,57.044 L36.585,55.609 L43.608,55.576 L43.615,57.012 L42.935,57.015 C42.598,59.913 43.398,62.946 44.193,66.132 C44.193,66.132 42.867,67.580 41.873,69.938 C41.438,70.969 41.052,72.103 40.767,73.000 L40.767,64.342 C41.041,64.151 41.220,63.836 41.220,63.480 C41.220,62.896 40.739,62.422 40.147,62.422 C39.554,62.422 39.074,62.896 39.074,63.480 C39.074,63.836 39.253,64.151 39.526,64.342 L39.526,72.808 C39.241,71.948 38.869,70.906 38.456,69.954 C37.440,67.605 36.100,66.170 36.100,66.170 C36.866,62.976 37.636,59.936 37.271,57.041 Z" class="cls-1"/>
</svg>
